<mxfile host="app.diagrams.net" modified="2020-11-10T17:51:50.678Z" agent="5.0 (Macintosh; Intel Mac OS X 10_15_7) AppleWebKit/537.36 (KHTML, like Gecko) Chrome/86.0.4240.80 Safari/537.36" etag="mYvHmKGF5kod9PF1xyWm" version="13.9.3" type="github">
  <diagram id="9fnl1yyOtG8HGjEEbUFA" name="Page-1">
    <mxGraphModel dx="739" dy="665" grid="1" gridSize="10" guides="1" tooltips="1" connect="1" arrows="1" fold="1" page="1" pageScale="1" pageWidth="850" pageHeight="1100" math="0" shadow="0">
      <root>
        <mxCell id="0" />
        <mxCell id="1" parent="0" />
        <mxCell id="BEwBUcMwAN_doqcmrtSP-1" value="PortEntity" style="swimlane;fontStyle=0;childLayout=stackLayout;horizontal=1;startSize=26;fillColor=none;horizontalStack=0;resizeParent=1;resizeParentMax=0;resizeLast=0;collapsible=1;marginBottom=0;" vertex="1" parent="1">
          <mxGeometry x="290" y="120" width="230" height="870" as="geometry">
            <mxRectangle x="290" y="120" width="80" height="26" as="alternateBounds" />
          </mxGeometry>
        </mxCell>
        <mxCell id="BEwBUcMwAN_doqcmrtSP-54" value="+ network_id: String" style="text;strokeColor=none;fillColor=none;align=left;verticalAlign=top;spacingLeft=4;spacingRight=4;overflow=hidden;rotatable=0;points=[[0,0.5],[1,0.5]];portConstraint=eastwest;" vertex="1" parent="BEwBUcMwAN_doqcmrtSP-1">
          <mxGeometry y="26" width="230" height="26" as="geometry" />
        </mxCell>
        <mxCell id="BEwBUcMwAN_doqcmrtSP-3" value="+ cidr: String" style="text;strokeColor=none;fillColor=none;align=left;verticalAlign=top;spacingLeft=4;spacingRight=4;overflow=hidden;rotatable=0;points=[[0,0.5],[1,0.5]];portConstraint=eastwest;" vertex="1" parent="BEwBUcMwAN_doqcmrtSP-1">
          <mxGeometry y="52" width="230" height="26" as="geometry" />
        </mxCell>
        <mxCell id="BEwBUcMwAN_doqcmrtSP-4" value="+ availability_zone: String&#xa;" style="text;strokeColor=none;fillColor=none;align=left;verticalAlign=top;spacingLeft=4;spacingRight=4;overflow=hidden;rotatable=0;points=[[0,0.5],[1,0.5]];portConstraint=eastwest;" vertex="1" parent="BEwBUcMwAN_doqcmrtSP-1">
          <mxGeometry y="78" width="230" height="22" as="geometry" />
        </mxCell>
        <mxCell id="BEwBUcMwAN_doqcmrtSP-5" value="+ gateway_ip: String&#xa;" style="text;strokeColor=none;fillColor=none;align=left;verticalAlign=top;spacingLeft=4;spacingRight=4;overflow=hidden;rotatable=0;points=[[0,0.5],[1,0.5]];portConstraint=eastwest;" vertex="1" parent="BEwBUcMwAN_doqcmrtSP-1">
          <mxGeometry y="100" width="230" height="22" as="geometry" />
        </mxCell>
        <mxCell id="BEwBUcMwAN_doqcmrtSP-6" value="+ port_id: String&#xa;" style="text;strokeColor=none;fillColor=none;align=left;verticalAlign=top;spacingLeft=4;spacingRight=4;overflow=hidden;rotatable=0;points=[[0,0.5],[1,0.5]];portConstraint=eastwest;" vertex="1" parent="BEwBUcMwAN_doqcmrtSP-1">
          <mxGeometry y="122" width="230" height="22" as="geometry" />
        </mxCell>
        <mxCell id="BEwBUcMwAN_doqcmrtSP-7" value="+ attached_router_id: String&#xa;" style="text;strokeColor=none;fillColor=none;align=left;verticalAlign=top;spacingLeft=4;spacingRight=4;overflow=hidden;rotatable=0;points=[[0,0.5],[1,0.5]];portConstraint=eastwest;" vertex="1" parent="BEwBUcMwAN_doqcmrtSP-1">
          <mxGeometry y="144" width="230" height="22" as="geometry" />
        </mxCell>
        <mxCell id="BEwBUcMwAN_doqcmrtSP-8" value="+ port_detail: PortEntity&#xa;" style="text;strokeColor=none;fillColor=none;align=left;verticalAlign=top;spacingLeft=4;spacingRight=4;overflow=hidden;rotatable=0;points=[[0,0.5],[1,0.5]];portConstraint=eastwest;" vertex="1" parent="BEwBUcMwAN_doqcmrtSP-1">
          <mxGeometry y="166" width="230" height="22" as="geometry" />
        </mxCell>
        <mxCell id="BEwBUcMwAN_doqcmrtSP-9" value="+ enable_dhcp: Boolean&#xa;" style="text;strokeColor=none;fillColor=none;align=left;verticalAlign=top;spacingLeft=4;spacingRight=4;overflow=hidden;rotatable=0;points=[[0,0.5],[1,0.5]];portConstraint=eastwest;" vertex="1" parent="BEwBUcMwAN_doqcmrtSP-1">
          <mxGeometry y="188" width="230" height="22" as="geometry" />
        </mxCell>
        <mxCell id="BEwBUcMwAN_doqcmrtSP-10" value="+ primary_dns: String&#xa;" style="text;strokeColor=none;fillColor=none;align=left;verticalAlign=top;spacingLeft=4;spacingRight=4;overflow=hidden;rotatable=0;points=[[0,0.5],[1,0.5]];portConstraint=eastwest;" vertex="1" parent="BEwBUcMwAN_doqcmrtSP-1">
          <mxGeometry y="210" width="230" height="22" as="geometry" />
        </mxCell>
        <mxCell id="BEwBUcMwAN_doqcmrtSP-11" value="+ secondary_dns: String&#xa;" style="text;strokeColor=none;fillColor=none;align=left;verticalAlign=top;spacingLeft=4;spacingRight=4;overflow=hidden;rotatable=0;points=[[0,0.5],[1,0.5]];portConstraint=eastwest;" vertex="1" parent="BEwBUcMwAN_doqcmrtSP-1">
          <mxGeometry y="232" width="230" height="22" as="geometry" />
        </mxCell>
        <mxCell id="BEwBUcMwAN_doqcmrtSP-12" value="+ routes: List&lt;RouteEntity&gt;&#xa;" style="text;strokeColor=none;fillColor=none;align=left;verticalAlign=top;spacingLeft=4;spacingRight=4;overflow=hidden;rotatable=0;points=[[0,0.5],[1,0.5]];portConstraint=eastwest;" vertex="1" parent="BEwBUcMwAN_doqcmrtSP-1">
          <mxGeometry y="254" width="230" height="22" as="geometry" />
        </mxCell>
        <mxCell id="BEwBUcMwAN_doqcmrtSP-13" value="+ gateway_macAddress: String&#xa;" style="text;strokeColor=none;fillColor=none;align=left;verticalAlign=top;spacingLeft=4;spacingRight=4;overflow=hidden;rotatable=0;points=[[0,0.5],[1,0.5]];portConstraint=eastwest;" vertex="1" parent="BEwBUcMwAN_doqcmrtSP-1">
          <mxGeometry y="276" width="230" height="22" as="geometry" />
        </mxCell>
        <mxCell id="BEwBUcMwAN_doqcmrtSP-14" value="+ dns_list: List&lt;String&gt;" style="text;strokeColor=none;fillColor=none;align=left;verticalAlign=top;spacingLeft=4;spacingRight=4;overflow=hidden;rotatable=0;points=[[0,0.5],[1,0.5]];portConstraint=eastwest;" vertex="1" parent="BEwBUcMwAN_doqcmrtSP-1">
          <mxGeometry y="298" width="230" height="22" as="geometry" />
        </mxCell>
        <mxCell id="BEwBUcMwAN_doqcmrtSP-15" value="+ ip_version: Integer&#xa;" style="text;strokeColor=none;fillColor=none;align=left;verticalAlign=top;spacingLeft=4;spacingRight=4;overflow=hidden;rotatable=0;points=[[0,0.5],[1,0.5]];portConstraint=eastwest;" vertex="1" parent="BEwBUcMwAN_doqcmrtSP-1">
          <mxGeometry y="320" width="230" height="22" as="geometry" />
        </mxCell>
        <mxCell id="BEwBUcMwAN_doqcmrtSP-16" value="+ ipV4_rangeId: String&#xa;" style="text;strokeColor=none;fillColor=none;align=left;verticalAlign=top;spacingLeft=4;spacingRight=4;overflow=hidden;rotatable=0;points=[[0,0.5],[1,0.5]];portConstraint=eastwest;" vertex="1" parent="BEwBUcMwAN_doqcmrtSP-1">
          <mxGeometry y="342" width="230" height="22" as="geometry" />
        </mxCell>
        <mxCell id="BEwBUcMwAN_doqcmrtSP-17" value="+ ipV6_rangeId: String&#xa;" style="text;strokeColor=none;fillColor=none;align=left;verticalAlign=top;spacingLeft=4;spacingRight=4;overflow=hidden;rotatable=0;points=[[0,0.5],[1,0.5]];portConstraint=eastwest;" vertex="1" parent="BEwBUcMwAN_doqcmrtSP-1">
          <mxGeometry y="364" width="230" height="22" as="geometry" />
        </mxCell>
        <mxCell id="BEwBUcMwAN_doqcmrtSP-18" value="+ ipv6_address_mode: String&#xa;" style="text;strokeColor=none;fillColor=none;align=left;verticalAlign=top;spacingLeft=4;spacingRight=4;overflow=hidden;rotatable=0;points=[[0,0.5],[1,0.5]];portConstraint=eastwest;" vertex="1" parent="BEwBUcMwAN_doqcmrtSP-1">
          <mxGeometry y="386" width="230" height="22" as="geometry" />
        </mxCell>
        <mxCell id="BEwBUcMwAN_doqcmrtSP-19" value="+ ipv6_ra_mode: String&#xa;" style="text;strokeColor=none;fillColor=none;align=left;verticalAlign=top;spacingLeft=4;spacingRight=4;overflow=hidden;rotatable=0;points=[[0,0.5],[1,0.5]];portConstraint=eastwest;" vertex="1" parent="BEwBUcMwAN_doqcmrtSP-1">
          <mxGeometry y="408" width="230" height="22" as="geometry" />
        </mxCell>
        <mxCell id="BEwBUcMwAN_doqcmrtSP-20" value="+ revision_number: Integer&#xa;" style="text;strokeColor=none;fillColor=none;align=left;verticalAlign=top;spacingLeft=4;spacingRight=4;overflow=hidden;rotatable=0;points=[[0,0.5],[1,0.5]];portConstraint=eastwest;" vertex="1" parent="BEwBUcMwAN_doqcmrtSP-1">
          <mxGeometry y="430" width="230" height="22" as="geometry" />
        </mxCell>
        <mxCell id="BEwBUcMwAN_doqcmrtSP-21" value="+ segment_id: String&#xa;" style="text;strokeColor=none;fillColor=none;align=left;verticalAlign=top;spacingLeft=4;spacingRight=4;overflow=hidden;rotatable=0;points=[[0,0.5],[1,0.5]];portConstraint=eastwest;" vertex="1" parent="BEwBUcMwAN_doqcmrtSP-1">
          <mxGeometry y="452" width="230" height="22" as="geometry" />
        </mxCell>
        <mxCell id="BEwBUcMwAN_doqcmrtSP-22" value="+ shared: Boolean&#xa;" style="text;strokeColor=none;fillColor=none;align=left;verticalAlign=top;spacingLeft=4;spacingRight=4;overflow=hidden;rotatable=0;points=[[0,0.5],[1,0.5]];portConstraint=eastwest;" vertex="1" parent="BEwBUcMwAN_doqcmrtSP-1">
          <mxGeometry y="474" width="230" height="22" as="geometry" />
        </mxCell>
        <mxCell id="BEwBUcMwAN_doqcmrtSP-23" value="+ sort_dir: String" style="text;strokeColor=none;fillColor=none;align=left;verticalAlign=top;spacingLeft=4;spacingRight=4;overflow=hidden;rotatable=0;points=[[0,0.5],[1,0.5]];portConstraint=eastwest;" vertex="1" parent="BEwBUcMwAN_doqcmrtSP-1">
          <mxGeometry y="496" width="230" height="22" as="geometry" />
        </mxCell>
        <mxCell id="BEwBUcMwAN_doqcmrtSP-24" value="+ sort_key: String" style="text;strokeColor=none;fillColor=none;align=left;verticalAlign=top;spacingLeft=4;spacingRight=4;overflow=hidden;rotatable=0;points=[[0,0.5],[1,0.5]];portConstraint=eastwest;" vertex="1" parent="BEwBUcMwAN_doqcmrtSP-1">
          <mxGeometry y="518" width="230" height="22" as="geometry" />
        </mxCell>
        <mxCell id="BEwBUcMwAN_doqcmrtSP-25" value="+ subnetpool_id: String" style="text;strokeColor=none;fillColor=none;align=left;verticalAlign=top;spacingLeft=4;spacingRight=4;overflow=hidden;rotatable=0;points=[[0,0.5],[1,0.5]];portConstraint=eastwest;" vertex="1" parent="BEwBUcMwAN_doqcmrtSP-1">
          <mxGeometry y="540" width="230" height="22" as="geometry" />
        </mxCell>
        <mxCell id="BEwBUcMwAN_doqcmrtSP-26" value="+ dns_publish_fixed_ip: Boolean&#xa;" style="text;strokeColor=none;fillColor=none;align=left;verticalAlign=top;spacingLeft=4;spacingRight=4;overflow=hidden;rotatable=0;points=[[0,0.5],[1,0.5]];portConstraint=eastwest;" vertex="1" parent="BEwBUcMwAN_doqcmrtSP-1">
          <mxGeometry y="562" width="230" height="22" as="geometry" />
        </mxCell>
        <mxCell id="BEwBUcMwAN_doqcmrtSP-27" value="+ tags: List&lt;String&gt;&#xa;" style="text;strokeColor=none;fillColor=none;align=left;verticalAlign=top;spacingLeft=4;spacingRight=4;overflow=hidden;rotatable=0;points=[[0,0.5],[1,0.5]];portConstraint=eastwest;" vertex="1" parent="BEwBUcMwAN_doqcmrtSP-1">
          <mxGeometry y="584" width="230" height="22" as="geometry" />
        </mxCell>
        <mxCell id="BEwBUcMwAN_doqcmrtSP-28" value="+ tags-any: String&#xa;" style="text;strokeColor=none;fillColor=none;align=left;verticalAlign=top;spacingLeft=4;spacingRight=4;overflow=hidden;rotatable=0;points=[[0,0.5],[1,0.5]];portConstraint=eastwest;" vertex="1" parent="BEwBUcMwAN_doqcmrtSP-1">
          <mxGeometry y="606" width="230" height="22" as="geometry" />
        </mxCell>
        <mxCell id="BEwBUcMwAN_doqcmrtSP-29" value="+ not-tags: String&#xa;" style="text;strokeColor=none;fillColor=none;align=left;verticalAlign=top;spacingLeft=4;spacingRight=4;overflow=hidden;rotatable=0;points=[[0,0.5],[1,0.5]];portConstraint=eastwest;" vertex="1" parent="BEwBUcMwAN_doqcmrtSP-1">
          <mxGeometry y="628" width="230" height="22" as="geometry" />
        </mxCell>
        <mxCell id="BEwBUcMwAN_doqcmrtSP-30" value="+ not-tags-any: String&#xa;" style="text;strokeColor=none;fillColor=none;align=left;verticalAlign=top;spacingLeft=4;spacingRight=4;overflow=hidden;rotatable=0;points=[[0,0.5],[1,0.5]];portConstraint=eastwest;" vertex="1" parent="BEwBUcMwAN_doqcmrtSP-1">
          <mxGeometry y="650" width="230" height="22" as="geometry" />
        </mxCell>
        <mxCell id="BEwBUcMwAN_doqcmrtSP-31" value="+ fields: String&#xa;" style="text;strokeColor=none;fillColor=none;align=left;verticalAlign=top;spacingLeft=4;spacingRight=4;overflow=hidden;rotatable=0;points=[[0,0.5],[1,0.5]];portConstraint=eastwest;" vertex="1" parent="BEwBUcMwAN_doqcmrtSP-1">
          <mxGeometry y="672" width="230" height="22" as="geometry" />
        </mxCell>
        <mxCell id="BEwBUcMwAN_doqcmrtSP-32" value="+ dns_nameservers: List&lt;String&gt;&#xa;" style="text;strokeColor=none;fillColor=none;align=left;verticalAlign=top;spacingLeft=4;spacingRight=4;overflow=hidden;rotatable=0;points=[[0,0.5],[1,0.5]];portConstraint=eastwest;" vertex="1" parent="BEwBUcMwAN_doqcmrtSP-1">
          <mxGeometry y="694" width="230" height="22" as="geometry" />
        </mxCell>
        <mxCell id="BEwBUcMwAN_doqcmrtSP-33" value="+ allocation_pools: List&lt;AllocationPool&gt;&#xa;" style="text;strokeColor=none;fillColor=none;align=left;verticalAlign=top;spacingLeft=4;spacingRight=4;overflow=hidden;rotatable=0;points=[[0,0.5],[1,0.5]];portConstraint=eastwest;" vertex="1" parent="BEwBUcMwAN_doqcmrtSP-1">
          <mxGeometry y="716" width="230" height="22" as="geometry" />
        </mxCell>
        <mxCell id="BEwBUcMwAN_doqcmrtSP-34" value="+ host_routes: List&lt;HostRoute&gt;&#xa;" style="text;strokeColor=none;fillColor=none;align=left;verticalAlign=top;spacingLeft=4;spacingRight=4;overflow=hidden;rotatable=0;points=[[0,0.5],[1,0.5]];portConstraint=eastwest;" vertex="1" parent="BEwBUcMwAN_doqcmrtSP-1">
          <mxGeometry y="738" width="230" height="22" as="geometry" />
        </mxCell>
        <mxCell id="BEwBUcMwAN_doqcmrtSP-35" value="+ prefixlen: Integer&#xa;" style="text;strokeColor=none;fillColor=none;align=left;verticalAlign=top;spacingLeft=4;spacingRight=4;overflow=hidden;rotatable=0;points=[[0,0.5],[1,0.5]];portConstraint=eastwest;" vertex="1" parent="BEwBUcMwAN_doqcmrtSP-1">
          <mxGeometry y="760" width="230" height="22" as="geometry" />
        </mxCell>
        <mxCell id="BEwBUcMwAN_doqcmrtSP-36" value="+ use_default_subnet_pool: Boolean&#xa;" style="text;strokeColor=none;fillColor=none;align=left;verticalAlign=top;spacingLeft=4;spacingRight=4;overflow=hidden;rotatable=0;points=[[0,0.5],[1,0.5]];portConstraint=eastwest;" vertex="1" parent="BEwBUcMwAN_doqcmrtSP-1">
          <mxGeometry y="782" width="230" height="22" as="geometry" />
        </mxCell>
        <mxCell id="BEwBUcMwAN_doqcmrtSP-37" value="+ service_types: List&lt;String&gt;&#xa;" style="text;strokeColor=none;fillColor=none;align=left;verticalAlign=top;spacingLeft=4;spacingRight=4;overflow=hidden;rotatable=0;points=[[0,0.5],[1,0.5]];portConstraint=eastwest;" vertex="1" parent="BEwBUcMwAN_doqcmrtSP-1">
          <mxGeometry y="804" width="230" height="22" as="geometry" />
        </mxCell>
        <mxCell id="BEwBUcMwAN_doqcmrtSP-38" value="+ create_at: String&#xa;" style="text;strokeColor=none;fillColor=none;align=left;verticalAlign=top;spacingLeft=4;spacingRight=4;overflow=hidden;rotatable=0;points=[[0,0.5],[1,0.5]];portConstraint=eastwest;" vertex="1" parent="BEwBUcMwAN_doqcmrtSP-1">
          <mxGeometry y="826" width="230" height="22" as="geometry" />
        </mxCell>
        <mxCell id="BEwBUcMwAN_doqcmrtSP-39" value="+ update_at: String&#xa;" style="text;strokeColor=none;fillColor=none;align=left;verticalAlign=top;spacingLeft=4;spacingRight=4;overflow=hidden;rotatable=0;points=[[0,0.5],[1,0.5]];portConstraint=eastwest;" vertex="1" parent="BEwBUcMwAN_doqcmrtSP-1">
          <mxGeometry y="848" width="230" height="22" as="geometry" />
        </mxCell>
        <mxCell id="BEwBUcMwAN_doqcmrtSP-40" value="Extends" style="endArrow=block;endSize=16;endFill=0;html=1;exitX=0.5;exitY=0;exitDx=0;exitDy=0;entryX=0.5;entryY=1;entryDx=0;entryDy=0;" edge="1" parent="1" source="BEwBUcMwAN_doqcmrtSP-1" target="BEwBUcMwAN_doqcmrtSP-46">
          <mxGeometry width="160" relative="1" as="geometry">
            <mxPoint x="300" y="30" as="sourcePoint" />
            <mxPoint x="405" y="40" as="targetPoint" />
          </mxGeometry>
        </mxCell>
        <mxCell id="BEwBUcMwAN_doqcmrtSP-41" value="SubnetWebJson" style="swimlane;fontStyle=0;childLayout=stackLayout;horizontal=1;startSize=26;fillColor=none;horizontalStack=0;resizeParent=1;resizeParentMax=0;resizeLast=0;collapsible=1;marginBottom=0;" vertex="1" parent="1">
          <mxGeometry x="80" y="120" width="170" height="52" as="geometry" />
        </mxCell>
        <mxCell id="BEwBUcMwAN_doqcmrtSP-42" value="+ subnet: SubnetEntity" style="text;strokeColor=none;fillColor=none;align=left;verticalAlign=top;spacingLeft=4;spacingRight=4;overflow=hidden;rotatable=0;points=[[0,0.5],[1,0.5]];portConstraint=eastwest;" vertex="1" parent="BEwBUcMwAN_doqcmrtSP-41">
          <mxGeometry y="26" width="170" height="26" as="geometry" />
        </mxCell>
        <mxCell id="BEwBUcMwAN_doqcmrtSP-43" value="" style="endArrow=open;shadow=0;strokeWidth=1;rounded=0;endFill=1;edgeStyle=elbowEdgeStyle;elbow=vertical;" edge="1" parent="1" source="BEwBUcMwAN_doqcmrtSP-42" target="BEwBUcMwAN_doqcmrtSP-1">
          <mxGeometry x="0.5" y="41" relative="1" as="geometry">
            <mxPoint x="160" y="200" as="sourcePoint" />
            <mxPoint x="260" y="200" as="targetPoint" />
            <mxPoint x="-40" y="32" as="offset" />
            <Array as="points">
              <mxPoint x="260" y="159" />
              <mxPoint x="250" y="180" />
              <mxPoint x="270" y="159" />
              <mxPoint x="260" y="139" />
              <mxPoint x="280" y="85" />
            </Array>
          </mxGeometry>
        </mxCell>
        <mxCell id="BEwBUcMwAN_doqcmrtSP-44" value="1" style="resizable=0;align=left;verticalAlign=bottom;labelBackgroundColor=none;fontSize=12;" connectable="0" vertex="1" parent="BEwBUcMwAN_doqcmrtSP-43">
          <mxGeometry x="-1" relative="1" as="geometry">
            <mxPoint x="1" as="offset" />
          </mxGeometry>
        </mxCell>
        <mxCell id="BEwBUcMwAN_doqcmrtSP-45" value="1" style="resizable=0;align=right;verticalAlign=bottom;labelBackgroundColor=none;fontSize=12;" connectable="0" vertex="1" parent="BEwBUcMwAN_doqcmrtSP-43">
          <mxGeometry x="1" relative="1" as="geometry">
            <mxPoint x="-4" as="offset" />
          </mxGeometry>
        </mxCell>
        <mxCell id="BEwBUcMwAN_doqcmrtSP-46" value="&lt;p style=&quot;margin: 0px ; margin-top: 4px ; text-align: center&quot;&gt;&lt;b&gt;CustomerResource&lt;/b&gt;&lt;/p&gt;&lt;hr size=&quot;1&quot;&gt;&lt;div style=&quot;height: 2px&quot;&gt;&lt;/div&gt;" style="verticalAlign=top;align=left;overflow=fill;fontSize=12;fontFamily=Helvetica;html=1;" vertex="1" parent="1">
          <mxGeometry x="335" y="20" width="140" height="30" as="geometry" />
        </mxCell>
        <mxCell id="BEwBUcMwAN_doqcmrtSP-47" value="SubnetsWebJson" style="swimlane;fontStyle=0;childLayout=stackLayout;horizontal=1;startSize=26;fillColor=none;horizontalStack=0;resizeParent=1;resizeParentMax=0;resizeLast=0;collapsible=1;marginBottom=0;" vertex="1" parent="1">
          <mxGeometry x="50" y="220" width="200" height="52" as="geometry" />
        </mxCell>
        <mxCell id="BEwBUcMwAN_doqcmrtSP-48" value="+ subnets: ArrayList&lt;SubnetEntity&gt;" style="text;strokeColor=none;fillColor=none;align=left;verticalAlign=top;spacingLeft=4;spacingRight=4;overflow=hidden;rotatable=0;points=[[0,0.5],[1,0.5]];portConstraint=eastwest;" vertex="1" parent="BEwBUcMwAN_doqcmrtSP-47">
          <mxGeometry y="26" width="200" height="26" as="geometry" />
        </mxCell>
        <mxCell id="BEwBUcMwAN_doqcmrtSP-49" value="" style="endArrow=open;shadow=0;strokeWidth=1;rounded=0;endFill=1;edgeStyle=elbowEdgeStyle;elbow=vertical;" edge="1" parent="1" source="BEwBUcMwAN_doqcmrtSP-48" target="BEwBUcMwAN_doqcmrtSP-1">
          <mxGeometry x="0.5" y="41" relative="1" as="geometry">
            <mxPoint x="260" y="169" as="sourcePoint" />
            <mxPoint x="300" y="169" as="targetPoint" />
            <mxPoint x="-40" y="32" as="offset" />
            <Array as="points">
              <mxPoint x="280" y="259" />
              <mxPoint x="260" y="190" />
              <mxPoint x="280" y="169" />
              <mxPoint x="270" y="149" />
              <mxPoint x="290" y="95" />
            </Array>
          </mxGeometry>
        </mxCell>
        <mxCell id="BEwBUcMwAN_doqcmrtSP-50" value="1" style="resizable=0;align=left;verticalAlign=bottom;labelBackgroundColor=none;fontSize=12;" connectable="0" vertex="1" parent="BEwBUcMwAN_doqcmrtSP-49">
          <mxGeometry x="-1" relative="1" as="geometry">
            <mxPoint x="1" as="offset" />
          </mxGeometry>
        </mxCell>
        <mxCell id="BEwBUcMwAN_doqcmrtSP-51" value="*" style="resizable=0;align=right;verticalAlign=bottom;labelBackgroundColor=none;fontSize=12;" connectable="0" vertex="1" parent="BEwBUcMwAN_doqcmrtSP-49">
          <mxGeometry x="1" relative="1" as="geometry">
            <mxPoint x="-4" as="offset" />
          </mxGeometry>
        </mxCell>
      </root>
    </mxGraphModel>
  </diagram>
</mxfile>
